<svg xmlns="http://www.w3.org/2000/svg" width="101" height="30" viewBox="0 0 101 30">
    <g fill="none" fill-rule="evenodd">
        <path fill="#2B4CB9" d="M7.808 2.046A15.297 15.297 0 0 1 15.513 0c7.303 0 11.149 4.935 11.536 5.458l2.792-2.84.156 12.123-11.973-.099 3.864-3.932c-.346-.5-2.275-3.038-6.163-3.42-1.355-.133-2.574.162-3.608.63L7.808 2.045z"/>
        <path fill="#5A96F6" d="M.254 17.315A15.706 15.706 0 0 1 0 14.485C0 7.181 4.935 3.334 5.458 2.947L2.618.156 14.74 0l-.099 11.974-3.932-3.865c-.5.346-3.038 2.276-3.42 6.163a6.834 6.834 0 0 0 .324 2.827l-7.36.216z"/>
        <path fill="#BEBEBE" d="M8.11 19.236l3.864-3.932L0 15.205.156 27.33l2.792-2.84c.387.523 4.234 5.457 11.536 5.457 7.712 0 11.77-5.443 11.77-5.443l-4.736-5.342s-2.928 3.92-7.246 3.495c-3.887-.381-5.817-2.919-6.163-3.42z"/>
        <path fill="#A5A5A5" stroke="#A5A5A5" stroke-width=".3" d="M31 22.964v-6.385h.974v.968c.248-.453.478-.751.688-.896.21-.144.442-.216.695-.216.364 0 .735.116 1.112.349l-.373 1.004a1.548 1.548 0 0 0-.793-.235 1.03 1.03 0 0 0-.638.214c-.188.142-.322.34-.402.592-.12.384-.18.805-.18 1.262v3.343H31zm8.483-2.056l1.118.138c-.176.653-.503 1.16-.98 1.521-.477.36-1.086.541-1.827.541-.934 0-1.675-.287-2.222-.863-.547-.575-.82-1.381-.82-2.42 0-1.074.276-1.907.83-2.5.552-.594 1.27-.89 2.151-.89.854 0 1.552.29 2.093.872.54.58.811 1.398.811 2.453 0 .064-.002.16-.006.288H35.87c.04.702.238 1.239.595 1.611.357.373.802.56 1.335.56.396 0 .735-.105 1.016-.313.28-.209.503-.541.667-.998zm-3.553-1.75h3.565c-.048-.537-.184-.94-.409-1.208a1.659 1.659 0 0 0-1.34-.625 1.72 1.72 0 0 0-1.254.499c-.339.332-.526.777-.562 1.334zm12.457.716l1.166.294c-.244.958-.684 1.689-1.32 2.192-.635.503-1.411.754-2.33.754-.95 0-1.722-.193-2.317-.58-.595-.387-1.048-.947-1.359-1.68a5.996 5.996 0 0 1-.465-2.363c0-.918.175-1.718.526-2.402.35-.683.85-1.202 1.497-1.557A4.374 4.374 0 0 1 45.922 14c.882 0 1.623.224 2.224.673.601.45 1.02 1.08 1.257 1.894l-1.148.27c-.205-.64-.501-1.108-.89-1.4-.39-.293-.878-.439-1.467-.439-.678 0-1.244.162-1.699.487-.455.325-.774.76-.959 1.308a5.264 5.264 0 0 0-.276 1.692c0 .75.11 1.404.328 1.963.218.559.558.977 1.019 1.253.46.277.96.415 1.497.415.653 0 1.206-.188 1.659-.565.453-.377.76-.936.92-1.677zm1.635 3.09l3.385-8.814h1.256l3.608 8.814h-1.33l-1.027-2.67h-3.686l-.967 2.67h-1.239zm2.543-3.62h2.988l-.92-2.44c-.28-.742-.489-1.35-.625-1.828-.112.565-.27 1.126-.475 1.684l-.968 2.585zm6.637 3.62V14.15h3.325c.585 0 1.032.028 1.34.084.434.073.796.21 1.089.412.292.203.528.486.706.851a2.7 2.7 0 0 1 .268 1.202c0 .75-.239 1.384-.716 1.903-.477.52-1.338.779-2.585.779h-2.26v3.583h-1.167zm1.167-4.623h2.278c.754 0 1.289-.14 1.606-.421.316-.28.474-.676.474-1.185 0-.368-.093-.684-.28-.946a1.307 1.307 0 0 0-.736-.52c-.196-.053-.559-.079-1.088-.079H60.37v3.15zm9.288 4.623V15.19h-2.903v-1.04h6.985v1.04h-2.915v7.774h-1.167zm11.567-3.09l1.167.294c-.245.958-.685 1.689-1.32 2.192-.635.503-1.412.754-2.33.754-.95 0-1.722-.193-2.317-.58-.595-.387-1.048-.947-1.359-1.68a5.996 5.996 0 0 1-.466-2.363c0-.918.176-1.718.526-2.402.351-.683.85-1.202 1.497-1.557A4.374 4.374 0 0 1 78.76 14c.881 0 1.623.224 2.224.673.601.45 1.02 1.08 1.256 1.894l-1.148.27c-.204-.64-.5-1.108-.89-1.4-.388-.293-.877-.439-1.467-.439-.677 0-1.243.162-1.698.487-.455.325-.774.76-.959 1.308a5.264 5.264 0 0 0-.276 1.692c0 .75.109 1.404.327 1.963.219.559.558.977 1.02 1.253.46.277.96.415 1.496.415.654 0 1.207-.188 1.66-.565.453-.377.76-.936.92-1.677zm2.64 3.09V14.15h1.166v3.62h4.581v-3.62h1.167v8.814H89.61V18.81h-4.58v4.154h-1.167zm7.888 0l3.384-8.814h1.257L100 22.964h-1.329l-1.028-2.67h-3.685l-.968 2.67h-1.238zm2.543-3.62h2.988l-.92-2.44c-.28-.742-.49-1.35-.626-1.828-.112.565-.27 1.126-.474 1.684l-.968 2.585z"/>
    </g>
</svg>
