<svg xmlns="http://www.w3.org/2000/svg" xmlns:xlink="http://www.w3.org/1999/xlink" width="322" height="92" viewBox="0 0 322 92">
    <defs>
        <ellipse id="a" cx="31.336" cy="31.388" rx="31.336" ry="31.388"/>
        <path id="b" d="M48.384 56.243c-.4.29-.808.574-1.22.842-.19.122-.377.245-.567.368-.54.334-1.085.646-1.646.947-.123.062-.245.123-.368.189a28.939 28.939 0 0 1-4.123 1.733c-.712.24-1.436.447-2.17.63h-.005a30.769 30.769 0 0 1-2.298.474c-.706.112-1.424.194-2.136.261-.128.012-.256.018-.385.029-.706.05-1.418.083-2.13.083-.724 0-1.442-.033-2.16-.089a30.803 30.803 0 0 1-2.525-.29l-.094-.017a29.527 29.527 0 0 1-4.436-1.108 5.004 5.004 0 0 0-.132-.05 26.51 26.51 0 0 1-2.12-.815c-.007 0-.012 0-.016-.005a29.514 29.514 0 0 1-1.943-.93c-.083-.045-.167-.085-.251-.13a29.758 29.758 0 0 1-1.713-.996c-.167-.106-.334-.211-.495-.324-.518-.334-1.03-.69-1.525-1.065l-.15-.117.106-.06 9.013-4.922a4.836 4.836 0 0 0 2.51-4.241v-4.112l-.262-.318c-.028-.029-2.487-3.027-3.422-7.096l-.1-.45-.39-.252a1.891 1.891 0 0 1-.879-1.588v-4.046c0-.53.228-1.026.634-1.4l.38-.339v-6.353l-.012-.15c0-.029-.34-2.776 1.59-4.978 1.649-1.883 4.475-2.836 8.392-2.836 3.905 0 6.721.947 8.368 2.815 1.93 2.178 1.613 4.976 1.613 4.999l-.011 6.509.379.34c.406.367.634.864.634 1.393v4.046c0 .814-.557 1.556-1.346 1.801l-.569.173-.183.568a21.158 21.158 0 0 1-2.843 5.74c-.3.423-.59.797-.84 1.086l-.278.319v4.224a4.806 4.806 0 0 0 2.659 4.319l9.648 4.832c.062.027.123.062.184.094-.122.09-.245.173-.367.263z"/>
    </defs>
    <g fill="none" fill-rule="evenodd">
        <g transform="translate(129.664 24.976)">
            <use fill="#FFF" xlink:href="#a"/>
            <ellipse cx="31.336" cy="31.388" stroke="#000" rx="30.836" ry="30.888"/>
        </g>
        <g transform="translate(129.664 24.976)">
            <use fill="#FFF" xlink:href="#b"/>
            <path stroke="#000" d="M38.401 61.439c-.716.178-1.462.33-2.352.476.043 0 .077-.007.016.005-.667.105-1.375.19-2.17.265a8.444 8.444 0 0 1-.203.016l-.19.014c-.782.055-1.489.084-2.166.084-.707 0-1.432-.03-2.183-.09a31.295 31.295 0 0 1-2.592-.297l-.088-.016a30.03 30.03 0 0 1-4.532-1.135 5.028 5.028 0 0 0-.11-.042 26.99 26.99 0 0 1-2.161-.83l.004-.01a1.35 1.35 0 0 1-.014-.009l-.006.014a30 30 0 0 1-2.094-1.007l-.137-.07a30.184 30.184 0 0 1-1.745-1.016c-.257-.162-.371-.237-.497-.326a25.71 25.71 0 0 1-1.56-1.089 10.284 10.284 0 0 1-.157-.122l-.57-.456.63-.367.118-.068 9.013-4.92a4.336 4.336 0 0 0 2.25-3.803v-3.934l-.125-.152c-.208-.22-.867-1.142-1.44-2.125-.94-1.614-1.685-3.367-2.107-5.207l-.055-.25-.219-.14a2.39 2.39 0 0 1-1.107-2.008v-4.046c0-.669.287-1.299.8-1.772l.213-.19.002-6.092-.013-.188a7.33 7.33 0 0 1 .861-4.08c.236-.436.52-.846.853-1.227 1.757-2.007 4.717-3.007 8.768-3.007 4.036 0 6.987.993 8.742 2.983.364.41.668.857.916 1.334a7.485 7.485 0 0 1 .823 3.998l-.01 6.285.214.192c.51.463.798 1.094.798 1.764v4.046c0 1.033-.7 1.968-1.701 2.28l-.318.096-.103.319a21.66 21.66 0 0 1-2.912 5.878c-.31.435-.608.82-.871 1.124l-.154.177v4.037c0 1.65.912 3.133 2.383 3.872l9.627 4.822c.058.026.1.047.188.095l.03.016.698.374-.64.47c-.054.04-.097.07-.19.136l-.177.126-.002.002c-.439.317-.846.599-1.24.856l-.284.184-.293.19c-.536.332-1.089.65-1.685.97-.18.09-.259.13-.364.186a29.28 29.28 0 0 1-4.192 1.762 29.1 29.1 0 0 1-2.207.642l-.011.001z"/>
        </g>
        <g opacity=".18">
            <path fill="#FFF" d="M272.518 17.913c.243-.008.58-.15.703-.34 2.176-3.362 5.144-5.76 8.902-7.342-1.127-1.24-2.471-1.744-4.05-1.554-2.252.268-2.46.18-2.659-2.067-.267-3.03-2.755-5.844-6.404-6.103-2.875-.204-5.707 1.782-6.684 4.79-.45 1.386-.827 1.615-2.26 1.366-1.253-.219-2.419.02-3.234 1.012-.699.847-1.462 1.02-2.498.895-3.07-.37-5.517 2.067-5.236 5.134.217 2.376 2.214 4.186 4.738 4.215 3.032.033 6.065.005 9.096.015h6.277l.144-.002c1.056-.013 2.11.018 3.165-.02"/>
            <path stroke="#000" d="M272.518 17.913c.243-.008.58-.15.703-.34 2.176-3.362 5.144-5.76 8.902-7.342-1.127-1.24-2.471-1.744-4.05-1.554-2.252.268-2.46.18-2.659-2.067-.267-3.03-2.755-5.844-6.404-6.103-2.875-.204-5.707 1.782-6.684 4.79-.45 1.386-.827 1.615-2.26 1.366-1.253-.219-2.419.02-3.234 1.012-.699.847-1.462 1.02-2.498.895-3.07-.37-5.517 2.067-5.236 5.134.217 2.376 2.214 4.186 4.738 4.215 3.032.033 6.065.005 9.096.015h6.277l.144-.002c1.056-.013 2.11.018 3.165-.02z"/>
            <path fill="#FFF" d="M273.743 23.098c-.074.254-.149.507-.235.755-.36 1.056-.906 1.384-1.995 1.095-1.774-.473-3.53-.54-5.296.026-1.732.554-3.204 1.504-4.283 2.965-.65.878-1.364 1.148-2.443.919-6.93-1.48-13.433 3.66-13.846 10.753-.327 5.636 4.09 11.178 9.678 11.888 1.354.17 2.733.16 4.101.169 3.531.022 7.063.008 10.631.008 1.391-5.346 4.823-8.028 10.27-7.965.395-1.224.65-2.484 1.191-3.606 2.236-4.646 6.006-7.139 11.136-7.075 5.096.063 8.765 2.638 10.908 7.297.253.549.496.784 1.15.745 2.22-.13 4.12.668 5.744 2.176.206.192.545.382.801.36 3.122-.288 5.739.775 8.018 2.964 1.785-2.81 2.36-5.807 1.57-9.009-1.244-5.04-5.589-8.538-10.771-8.66-1.064-.024-2.145.205-3.199.406-1.596.306-2.227-.16-2.246-1.786-.028-2.354-.501-4.608-1.515-6.74a6.977 6.977 0 0 1-.303-.73 14.919 14.919 0 0 0-2.263-3.227c-.095-.07-.19-.15-.282-.244-2.371-2.387-5.158-3.98-8.48-4.592-8.02-1.478-15.74 3.277-18.04 11.108"/>
            <path stroke="#000" d="M273.743 23.098c-.074.254-.149.507-.235.755-.36 1.056-.906 1.384-1.995 1.095-1.774-.473-3.53-.54-5.296.026-1.732.554-3.204 1.504-4.283 2.965-.65.878-1.364 1.148-2.443.919-6.93-1.48-13.433 3.66-13.846 10.753-.327 5.636 4.09 11.178 9.678 11.888 1.354.17 2.733.16 4.101.169 3.531.022 7.063.008 10.631.008 1.391-5.346 4.823-8.028 10.27-7.965.395-1.224.65-2.484 1.191-3.606 2.236-4.646 6.006-7.139 11.136-7.075 5.096.063 8.765 2.638 10.908 7.297.253.549.496.784 1.15.745 2.22-.13 4.12.668 5.744 2.176.206.192.545.382.801.36 3.122-.288 5.739.775 8.018 2.964 1.785-2.81 2.36-5.807 1.57-9.009-1.244-5.04-5.589-8.538-10.771-8.66-1.064-.024-2.145.205-3.199.406-1.596.306-2.227-.16-2.246-1.786-.028-2.354-.501-4.608-1.515-6.74a6.977 6.977 0 0 1-.303-.73 14.919 14.919 0 0 0-2.263-3.227c-.095-.07-.19-.15-.282-.244-2.371-2.387-5.158-3.98-8.48-4.592-8.02-1.478-15.74 3.277-18.04 11.108z"/>
            <path fill="#FFF" d="M320.985 48.735c.252-3.491-2.007-6.86-5.31-7.652-1.197-.285-2.5-.255-3.743-.175-.877.057-1.534-.058-2.108-.757-1.616-1.97-3.668-2.653-6.158-2.034-1.245.31-1.855-.1-2.286-1.56-.759-2.578-2.27-4.554-4.502-6.037-6.089-4.044-14.794-.209-15.894 7.032a16.852 16.852 0 0 0-.17 1.85c-.066 1.529-.805 2.126-2.325 1.756a7.518 7.518 0 0 0-3.93.071c-3.414.978-5.549 4.157-5.273 7.85.248 3.327 2.99 6.143 6.403 6.555.613.075 1.234.116 1.851.117 8.325.007 16.65.005 24.975.005.176 0 .353-.002.531 0H308.665c1.975-.044 3.96.021 5.924-.157 3.409-.312 6.142-3.326 6.396-6.864"/>
            <path stroke="#000" d="M320.985 48.735c.252-3.491-2.007-6.86-5.31-7.652-1.197-.285-2.5-.255-3.743-.175-.877.057-1.534-.058-2.108-.757-1.616-1.97-3.668-2.653-6.158-2.034-1.245.31-1.855-.1-2.286-1.56-.759-2.578-2.27-4.554-4.502-6.037-6.089-4.044-14.794-.209-15.894 7.032a16.852 16.852 0 0 0-.17 1.85c-.066 1.529-.805 2.126-2.325 1.756a7.518 7.518 0 0 0-3.93.071c-3.414.978-5.549 4.157-5.273 7.85.248 3.327 2.99 6.143 6.403 6.555.613.075 1.234.116 1.851.117 8.325.007 16.65.005 24.975.005.176 0 .353-.002.531 0H308.665c1.975-.044 3.96.021 5.924-.157 3.409-.312 6.142-3.326 6.396-6.864z"/>
        </g>
        <g stroke="#000" opacity=".18">
            <path d="M42.021 68.373c-.243-.008-.58-.15-.704-.34-2.175-3.362-5.143-5.759-8.9-7.342 1.126-1.24 2.47-1.744 4.049-1.554 2.251.268 2.46.18 2.658-2.067.268-3.03 2.756-5.844 6.405-6.103 2.874-.204 5.706 1.782 6.684 4.79.45 1.386.827 1.615 2.26 1.366 1.253-.219 2.418.02 3.234 1.012.698.848 1.462 1.02 2.498.895 3.07-.37 5.516 2.067 5.236 5.134-.217 2.376-2.215 4.186-4.739 4.215-3.031.033-6.064.005-9.096.015H45.33l-.145-.002c-1.055-.013-2.11.018-3.164-.019zM.558 84.3c-.23-3.2 1.839-6.285 4.866-7.011 1.096-.262 2.29-.234 3.43-.16.803.051 1.404-.054 1.93-.694 1.48-1.805 3.361-2.431 5.643-1.864 1.14.284 1.699-.091 2.094-1.43.695-2.361 2.08-4.172 4.125-5.53 5.578-3.706 13.555-.192 14.563 6.442.086.56.13 1.13.155 1.696.06 1.4.738 1.948 2.13 1.608a6.888 6.888 0 0 1 3.601.066c3.128.896 5.084 3.809 4.832 7.192-.227 3.048-2.74 5.628-5.867 6.006-.561.069-1.13.106-1.696.107-7.627.006-15.256.005-22.883.005-.162 0-.324-.002-.487 0H11.846c-1.81-.04-3.629.02-5.427-.145C3.295 90.303.79 87.541.558 84.3z"/>
        </g>
        <path stroke="#D0D0D0" stroke-linecap="round" d="M113.456 7.659h7.854M240.96 67.188h7.853M68.074 19.565H81.04M203.14 27.141h12.967M218.268 81.259h11.886M76.718 89.918h16.208M105.893 69.353h12.966"/>
    </g>
</svg>
